<svg width="169" height="26" viewBox="0 0 169 26" fill="none" xmlns="http://www.w3.org/2000/svg">
<path d="M6.25 20.06C6.23 20.12 6.18 20.15 6.1 20.15C5.92 20.15 5.86 20.07 5.92 19.91C6.38 19.05 7.08 18.16 8.02 17.24C8.96 16.32 10.1 15.52 11.44 14.84C12.78 14.14 14.27 13.72 15.91 13.58C16.05 13.56 16.18 13.55 16.3 13.55C16.42 13.55 16.55 13.55 16.69 13.55C17.99 13.55 18.93 13.84 19.51 14.42C20.09 14.98 20.34 15.69 20.26 16.55C20.16 17.75 19.73 18.85 18.97 19.85C18.23 20.85 17.27 21.71 16.09 22.43C14.93 23.15 13.66 23.7 12.28 24.08C10.9 24.48 9.53 24.68 8.17 24.68C6.73 24.68 5.39 24.43 4.15 23.93C2.93 23.45 1.94 22.69 1.18 21.65C0.44 20.59 0.0700002 19.21 0.0700002 17.51C0.0700002 17.35 0.0700002 17.19 0.0700002 17.03C0.0700002 16.87 0.0800001 16.71 0.1 16.55C0.22 15.27 0.58 13.95 1.18 12.59C1.8 11.23 2.63 9.93 3.67 8.69C4.73 7.45 5.97 6.34 7.39 5.36C8.83 4.38 10.42 3.6 12.16 3.02C13.9 2.44 15.77 2.15 17.77 2.15C19.09 2.15 20.06 2.39 20.68 2.87C21.32 3.35 21.64 3.91 21.64 4.55C21.64 5.05 21.45 5.57 21.07 6.11C20.69 6.63 20.14 7.09 19.42 7.49C18.62 7.93 17.74 8.28 16.78 8.54C15.84 8.78 14.93 8.96 14.05 9.08C13.17 9.18 12.44 9.26 11.86 9.32H11.83C11.77 9.32 11.74 9.29 11.74 9.23C11.74 9.13 11.81 9.07 11.95 9.05C13.27 8.91 14.56 8.65 15.82 8.27C17.08 7.87 18.16 7.4 19.06 6.86C19.56 6.56 19.96 6.19 20.26 5.75C20.56 5.31 20.71 4.87 20.71 4.43C20.71 3.93 20.46 3.5 19.96 3.14C19.48 2.76 18.67 2.57 17.53 2.57C15.79 2.57 14.16 2.86 12.64 3.44C11.14 4 9.77 4.77 8.53 5.75C7.31 6.71 6.24 7.81 5.32 9.05C4.42 10.27 3.7 11.55 3.16 12.89C2.64 14.21 2.32 15.5 2.2 16.76C2.18 16.96 2.16 17.15 2.14 17.33C2.14 17.51 2.14 17.69 2.14 17.87C2.14 19.41 2.43 20.66 3.01 21.62C3.59 22.58 4.36 23.27 5.32 23.69C6.28 24.13 7.33 24.35 8.47 24.35C9.65 24.35 10.84 24.15 12.04 23.75C13.24 23.35 14.36 22.8 15.4 22.1C16.44 21.38 17.29 20.54 17.95 19.58C18.63 18.62 19.01 17.59 19.09 16.49C19.17 15.67 18.95 15.02 18.43 14.54C17.93 14.04 17.09 13.84 15.91 13.94C14.33 14.08 12.89 14.49 11.59 15.17C10.29 15.83 9.18 16.6 8.26 17.48C7.36 18.36 6.69 19.22 6.25 20.06ZM23.4215 23.6C22.6615 23.6 22.0015 23.36 21.4415 22.88C20.9015 22.38 20.6315 21.62 20.6315 20.6C20.6315 19.96 20.7415 19.3 20.9615 18.62C21.2015 17.92 21.4615 17.3 21.7415 16.76C22.2615 15.78 22.9115 14.93 23.6915 14.21C24.4915 13.47 25.4415 13.1 26.5415 13.1C27.6015 13.1 28.3415 13.39 28.7615 13.97C29.1815 14.55 29.3915 15.26 29.3915 16.1C29.3915 16.44 29.3615 16.79 29.3015 17.15C29.1415 18.13 28.8115 19.08 28.3115 20C28.4515 20.2 28.6315 20.37 28.8515 20.51C29.0915 20.63 29.3515 20.69 29.6315 20.69C30.1115 20.69 30.5215 20.56 30.8615 20.3C31.2015 20.04 31.4915 19.72 31.7315 19.34C31.9915 18.94 32.2115 18.57 32.3915 18.23C32.5115 18.01 32.6215 17.9 32.7215 17.9C32.7815 17.9 32.8115 17.94 32.8115 18.02C32.8115 18.1 32.7515 18.28 32.6315 18.56C32.2915 19.24 31.8915 19.83 31.4315 20.33C30.9715 20.83 30.3715 21.08 29.6315 21.08C28.9515 21.08 28.4315 20.84 28.0715 20.36C27.5115 21.28 26.8315 22.05 26.0315 22.67C25.2315 23.29 24.3615 23.6 23.4215 23.6ZM23.4815 23.24C24.4615 23.24 25.4315 22.76 26.3915 21.8C26.6715 21.52 26.9215 21.23 27.1415 20.93C27.3815 20.61 27.5915 20.29 27.7715 19.97C27.5115 19.67 27.3215 19.35 27.2015 19.01C27.1015 18.65 27.0515 18.31 27.0515 17.99C27.0515 17.49 27.1415 17.05 27.3215 16.67C27.5015 16.27 27.7515 16.07 28.0715 16.07C28.2315 16.07 28.3815 16.15 28.5215 16.31C28.6815 16.47 28.7815 16.72 28.8215 17.06C28.8815 16.78 28.9115 16.48 28.9115 16.16C28.9115 15.4 28.7715 14.8 28.4915 14.36C28.2115 13.9 27.7415 13.67 27.0815 13.67C26.6815 13.67 26.2715 13.83 25.8515 14.15C25.4315 14.45 25.0315 14.82 24.6515 15.26C24.2915 15.7 23.9715 16.15 23.6915 16.61C23.4115 17.07 23.2015 17.45 23.0615 17.75C22.7215 18.49 22.4715 19.15 22.3115 19.73C22.1715 20.31 22.1015 20.82 22.1015 21.26C22.1015 21.9 22.2315 22.39 22.4915 22.73C22.7715 23.07 23.1015 23.24 23.4815 23.24ZM33.7094 23.18C33.0494 23.18 32.5894 22.97 32.3294 22.55C32.0694 22.13 31.9394 21.61 31.9394 20.99C31.9394 20.33 32.0394 19.61 32.2394 18.83C32.4594 18.05 32.7194 17.29 33.0194 16.55C33.3194 15.79 33.5994 15.13 33.8594 14.57C34.1194 14.01 34.2994 13.62 34.3994 13.4C34.7594 12.64 35.2094 11.78 35.7494 10.82C36.2894 9.86 36.8894 8.88 37.5494 7.88C38.2094 6.88 38.9194 5.93 39.6794 5.03C40.4394 4.13 41.2194 3.35 42.0194 2.69C42.8194 2.03 43.6194 1.58 44.4194 1.34C44.6394 1.28 44.8394 1.25 45.0194 1.25C45.3594 1.25 45.6394 1.35 45.8594 1.55C46.0994 1.73 46.2194 2.05 46.2194 2.51C46.2194 2.83 46.1394 3.23 45.9794 3.71C45.7194 4.41 45.2794 5.19 44.6594 6.05C44.0394 6.89 43.3094 7.77 42.4694 8.69C41.6294 9.59 40.7394 10.48 39.7994 11.36C38.8794 12.24 37.9794 13.06 37.0994 13.82C36.2194 14.58 35.4394 15.23 34.7594 15.77C34.5794 16.15 34.4094 16.52 34.2494 16.88C34.1094 17.24 33.9794 17.59 33.8594 17.93C33.7994 18.11 33.7094 18.38 33.5894 18.74C33.4694 19.1 33.3594 19.5 33.2594 19.94C33.1594 20.38 33.1094 20.8 33.1094 21.2C33.1094 21.6 33.1894 21.95 33.3494 22.25C33.5094 22.53 33.7994 22.67 34.2194 22.67C34.5594 22.67 34.9694 22.49 35.4494 22.13C35.9494 21.75 36.4594 21.26 36.9794 20.66C37.5194 20.06 38.0394 19.43 38.5394 18.77C39.0594 18.09 39.5294 17.44 39.9494 16.82C40.3694 16.2 40.6894 15.69 40.9094 15.29C41.0894 14.85 41.2594 14.46 41.4194 14.12C41.5794 13.78 41.6994 13.54 41.7794 13.4C42.1394 12.64 42.5894 11.78 43.1294 10.82C43.6694 9.86 44.2694 8.88 44.9294 7.88C45.5894 6.88 46.2994 5.93 47.0594 5.03C47.8194 4.13 48.5994 3.35 49.3994 2.69C50.1994 2.03 50.9994 1.58 51.7994 1.34C52.0194 1.28 52.2194 1.25 52.3994 1.25C52.7394 1.25 53.0194 1.35 53.2394 1.55C53.4794 1.73 53.5994 2.05 53.5994 2.51C53.5994 2.83 53.5194 3.23 53.3594 3.71C53.0994 4.41 52.6594 5.19 52.0394 6.05C51.4194 6.89 50.6894 7.77 49.8494 8.69C49.0094 9.59 48.1194 10.48 47.1794 11.36C46.2594 12.24 45.3594 13.06 44.4794 13.82C43.5994 14.58 42.8194 15.23 42.1394 15.77C41.9594 16.15 41.7894 16.52 41.6294 16.88C41.4894 17.24 41.3594 17.59 41.2394 17.93C41.1794 18.11 41.0894 18.38 40.9694 18.74C40.8494 19.1 40.7394 19.5 40.6394 19.94C40.5394 20.38 40.4894 20.8 40.4894 21.2C40.4894 21.6 40.5694 21.95 40.7294 22.25C40.8894 22.53 41.1794 22.67 41.5994 22.67C41.9394 22.67 42.2594 22.56 42.5594 22.34C42.8594 22.12 43.1194 21.88 43.3394 21.62C43.7994 21.12 44.1994 20.61 44.5394 20.09C44.8994 19.55 45.2494 18.95 45.5894 18.29C45.6694 18.15 45.7294 18.08 45.7694 18.08C45.8094 18.08 45.8294 18.14 45.8294 18.26C45.8294 18.44 45.7894 18.63 45.7094 18.83C45.3294 19.53 44.9794 20.12 44.6594 20.6C44.3594 21.08 43.9194 21.61 43.3394 22.19C43.0794 22.45 42.7794 22.68 42.4394 22.88C42.0994 23.08 41.7094 23.18 41.2694 23.18C40.5494 23.18 40.0394 22.97 39.7394 22.55C39.4594 22.13 39.3194 21.6 39.3194 20.96C39.3194 20.42 39.3994 19.83 39.5594 19.19C39.7194 18.53 39.9094 17.89 40.1294 17.27C39.7094 17.89 39.2394 18.55 38.7194 19.25C38.1994 19.93 37.6494 20.57 37.0694 21.17C36.4894 21.77 35.9094 22.26 35.3294 22.64C34.7694 23 34.2294 23.18 33.7094 23.18ZM35.0894 15.08C35.7094 14.54 36.4294 13.9 37.2494 13.16C38.0694 12.4 38.9094 11.59 39.7694 10.73C40.6294 9.87 41.4394 9.01 42.1994 8.15C42.9794 7.29 43.6494 6.48 44.2094 5.72C44.7894 4.96 45.1794 4.3 45.3794 3.74C45.5594 3.22 45.6494 2.82 45.6494 2.54C45.6494 2.02 45.4194 1.76 44.9594 1.76C44.6994 1.76 44.3894 1.86 44.0294 2.06C43.6694 2.24 43.3394 2.48 43.0394 2.78C42.5594 3.26 41.9794 3.95 41.2994 4.85C40.6194 5.73 39.9094 6.74 39.1694 7.88C38.4294 9.02 37.6994 10.21 36.9794 11.45C36.2794 12.69 35.6494 13.9 35.0894 15.08ZM42.4694 15.08C43.1094 14.54 43.8294 13.9 44.6294 13.16C45.4494 12.4 46.2894 11.59 47.1494 10.73C48.0094 9.87 48.8194 9.01 49.5794 8.15C50.3594 7.29 51.0294 6.48 51.5894 5.72C52.1694 4.96 52.5594 4.3 52.7594 3.74C52.9394 3.22 53.0294 2.82 53.0294 2.54C53.0294 2.02 52.7994 1.76 52.3394 1.76C52.0794 1.76 51.7694 1.86 51.4094 2.06C51.0494 2.24 50.7194 2.48 50.4194 2.78C49.9394 3.26 49.3594 3.95 48.6794 4.85C47.9994 5.73 47.2894 6.74 46.5494 7.88C45.8094 9.02 45.0794 10.21 44.3594 11.45C43.6594 12.69 43.0294 13.9 42.4694 15.08ZM48.4516 23.24C47.2916 23.24 46.4716 22.94 45.9916 22.34C45.7516 22.08 45.5816 21.77 45.4816 21.41C45.3816 21.05 45.3316 20.68 45.3316 20.3C45.3316 19.82 45.3916 19.34 45.5116 18.86C45.6316 18.36 45.7816 17.9 45.9616 17.48C46.2416 16.82 46.6116 16.16 47.0716 15.5C47.5316 14.82 48.0816 14.25 48.7216 13.79C49.3816 13.33 50.1016 13.1 50.8816 13.1C51.4016 13.1 51.8116 13.23 52.1116 13.49C52.4116 13.75 52.5616 14.15 52.5616 14.69C52.5616 15.31 52.3716 15.94 51.9916 16.58C51.6116 17.2 51.1316 17.72 50.5516 18.14C49.9716 18.56 49.3716 18.77 48.7516 18.77C48.1916 18.77 47.7016 18.57 47.2816 18.17C47.1616 18.49 47.0616 18.85 46.9816 19.25C46.9016 19.63 46.8616 20.02 46.8616 20.42C46.8616 21.04 46.9816 21.58 47.2216 22.04C47.4816 22.5 47.9416 22.73 48.6016 22.73C49.0816 22.73 49.5416 22.61 49.9816 22.37C50.4416 22.11 50.8516 21.8 51.2116 21.44C51.6116 21.02 51.9916 20.57 52.3516 20.09C52.7116 19.61 53.0616 19.05 53.4016 18.41C53.4416 18.35 53.4716 18.32 53.4916 18.32C53.5716 18.32 53.6116 18.41 53.6116 18.59C53.6116 18.71 53.5716 18.84 53.4916 18.98C53.1916 19.52 52.8416 20.07 52.4416 20.63C52.0416 21.17 51.6316 21.64 51.2116 22.04C50.8316 22.4 50.4216 22.69 49.9816 22.91C49.5416 23.13 49.0316 23.24 48.4516 23.24ZM47.4316 17.72C47.5716 17.92 47.7316 18.07 47.9116 18.17C48.1116 18.25 48.3116 18.29 48.5116 18.29C48.9916 18.29 49.4916 18.11 50.0116 17.75C50.5316 17.37 50.9516 16.93 51.2716 16.43C51.4116 16.21 51.5316 15.92 51.6316 15.56C51.7516 15.2 51.8116 14.86 51.8116 14.54C51.8116 14.26 51.7516 14.02 51.6316 13.82C51.5316 13.6 51.3216 13.49 51.0016 13.49C50.6416 13.49 50.2116 13.71 49.7116 14.15C49.2316 14.59 48.7716 15.16 48.3316 15.86C48.1916 16.1 48.0316 16.38 47.8516 16.7C47.6916 17.02 47.5516 17.36 47.4316 17.72ZM56.0931 23.33C55.0531 23.33 54.3131 23.02 53.8731 22.4C53.4331 21.76 53.2131 21.01 53.2131 20.15C53.2131 19.21 53.4131 18.26 53.8131 17.3C54.1131 16.58 54.5031 15.91 54.9831 15.29C55.4631 14.65 56.0331 14.13 56.6931 13.73C57.3731 13.33 58.1131 13.13 58.9131 13.13C59.5131 13.13 59.9731 13.27 60.2931 13.55C60.6331 13.83 60.8031 14.22 60.8031 14.72C60.8031 14.88 60.7831 15.05 60.7431 15.23C60.7231 15.41 60.6631 15.61 60.5631 15.83C60.4231 16.19 60.2431 16.51 60.0231 16.79C59.8031 17.07 59.5531 17.29 59.2731 17.45C59.1331 17.53 58.9731 17.57 58.7931 17.57C58.6531 17.57 58.5231 17.53 58.4031 17.45C58.2831 17.37 58.2231 17.24 58.2231 17.06C58.2231 16.74 58.3931 16.4 58.7331 16.04C59.0931 15.66 59.5531 15.46 60.1131 15.44C60.2131 15.18 60.2631 14.95 60.2631 14.75C60.2631 14.43 60.1631 14.16 59.9631 13.94C59.7631 13.7 59.4531 13.58 59.0331 13.58C58.5131 13.58 58.0031 13.78 57.5031 14.18C57.0031 14.56 56.5531 15.07 56.1531 15.71C55.7731 16.33 55.4631 16.99 55.2231 17.69C55.1031 18.01 54.9931 18.42 54.8931 18.92C54.7931 19.4 54.7431 19.88 54.7431 20.36C54.7431 20.98 54.8731 21.54 55.1331 22.04C55.4131 22.52 55.9331 22.76 56.6931 22.76C57.2331 22.76 57.7431 22.61 58.2231 22.31C58.7031 21.99 59.1331 21.6 59.5131 21.14C59.9131 20.68 60.2631 20.21 60.5631 19.73C60.8831 19.23 61.1431 18.79 61.3431 18.41C61.3631 18.33 61.4131 18.29 61.4931 18.29C61.5931 18.29 61.6431 18.37 61.6431 18.53C61.6431 18.61 61.6131 18.7 61.5531 18.8C61.1331 19.54 60.6831 20.26 60.2031 20.96C59.7231 21.64 59.1531 22.21 58.4931 22.67C57.8331 23.11 57.0331 23.33 56.0931 23.33ZM62.5626 23.21C62.0626 23.21 61.6126 23.07 61.2126 22.79C60.8326 22.49 60.6426 22.01 60.6426 21.35C60.6426 20.65 60.8126 19.88 61.1526 19.04C61.4926 18.2 61.8126 17.45 62.1126 16.79C62.2726 16.47 62.4826 16.04 62.7426 15.5C63.0226 14.94 63.3226 14.39 63.6426 13.85H62.2326C62.1726 13.85 62.1426 13.8 62.1426 13.7C62.1426 13.62 62.1726 13.54 62.2326 13.46C62.2926 13.36 62.3626 13.31 62.4426 13.31C63.0026 13.31 63.4226 13.26 63.7026 13.16C63.9826 13.06 64.2226 12.92 64.4226 12.74C64.7426 12.46 65.0526 12.1 65.3526 11.66C65.6726 11.22 65.9826 10.84 66.2826 10.52C66.5026 10.24 66.7726 10.03 67.0926 9.89C67.4326 9.75 67.6526 9.7 67.7526 9.74C67.6526 9.88 67.4926 10.12 67.2726 10.46C67.0526 10.8 66.8226 11.17 66.5826 11.57C66.3426 11.97 66.1226 12.34 65.9226 12.68C65.7226 13.02 65.5926 13.25 65.5326 13.37H67.5126C67.5726 13.37 67.6026 13.39 67.6026 13.43C67.6026 13.51 67.5526 13.6 67.4526 13.7C67.3726 13.8 67.2926 13.85 67.2126 13.85H65.2626C64.9026 14.47 64.4726 15.28 63.9726 16.28C63.4926 17.26 63.0626 18.21 62.6826 19.13C62.6026 19.31 62.4626 19.67 62.2626 20.21C62.0826 20.75 61.9926 21.25 61.9926 21.71C61.9926 22.01 62.0526 22.26 62.1726 22.46C62.3126 22.66 62.5426 22.76 62.8626 22.76C63.2026 22.76 63.5726 22.64 63.9726 22.4C64.3726 22.14 64.6826 21.88 64.9026 21.62C65.3626 21.12 65.7826 20.57 66.1626 19.97C66.5426 19.37 66.9226 18.73 67.3026 18.05C67.3626 17.97 67.4226 17.93 67.4826 17.93C67.5626 17.93 67.6026 17.99 67.6026 18.11C67.6026 18.21 67.5826 18.29 67.5426 18.35C67.1826 19.01 66.7926 19.67 66.3726 20.33C65.9726 20.99 65.4826 21.61 64.9026 22.19C64.6426 22.45 64.2926 22.69 63.8526 22.91C63.4126 23.11 62.9826 23.21 62.5626 23.21ZM69.5641 23.6C68.8041 23.6 68.1441 23.36 67.5841 22.88C67.0441 22.38 66.7741 21.62 66.7741 20.6C66.7741 19.96 66.8841 19.3 67.1041 18.62C67.3441 17.92 67.6041 17.3 67.8841 16.76C68.4041 15.78 69.0541 14.93 69.8341 14.21C70.6341 13.47 71.5841 13.1 72.6841 13.1C73.7441 13.1 74.4841 13.39 74.9041 13.97C75.3241 14.55 75.5341 15.26 75.5341 16.1C75.5341 16.44 75.5041 16.79 75.4441 17.15C75.2841 18.13 74.9541 19.08 74.4541 20C74.5941 20.2 74.7741 20.37 74.9941 20.51C75.2341 20.63 75.4941 20.69 75.7741 20.69C76.2541 20.69 76.6641 20.56 77.0041 20.3C77.3441 20.04 77.6341 19.72 77.8741 19.34C78.1341 18.94 78.3541 18.57 78.5341 18.23C78.6541 18.01 78.7641 17.9 78.8641 17.9C78.9241 17.9 78.9541 17.94 78.9541 18.02C78.9541 18.1 78.8941 18.28 78.7741 18.56C78.4341 19.24 78.0341 19.83 77.5741 20.33C77.1141 20.83 76.5141 21.08 75.7741 21.08C75.0941 21.08 74.5741 20.84 74.2141 20.36C73.6541 21.28 72.9741 22.05 72.1741 22.67C71.3741 23.29 70.5041 23.6 69.5641 23.6ZM69.6241 23.24C70.6041 23.24 71.5741 22.76 72.5341 21.8C72.8141 21.52 73.0641 21.23 73.2841 20.93C73.5241 20.61 73.7341 20.29 73.9141 19.97C73.6541 19.67 73.4641 19.35 73.3441 19.01C73.2441 18.65 73.1941 18.31 73.1941 17.99C73.1941 17.49 73.2841 17.05 73.4641 16.67C73.6441 16.27 73.8941 16.07 74.2141 16.07C74.3741 16.07 74.5241 16.15 74.6641 16.31C74.8241 16.47 74.9241 16.72 74.9641 17.06C75.0241 16.78 75.0541 16.48 75.0541 16.16C75.0541 15.4 74.9141 14.8 74.6341 14.36C74.3541 13.9 73.8841 13.67 73.2241 13.67C72.8241 13.67 72.4141 13.83 71.9941 14.15C71.5741 14.45 71.1741 14.82 70.7941 15.26C70.4341 15.7 70.1141 16.15 69.8341 16.61C69.5541 17.07 69.3441 17.45 69.2041 17.75C68.8641 18.49 68.6141 19.15 68.4541 19.73C68.3141 20.31 68.2441 20.82 68.2441 21.26C68.2441 21.9 68.3741 22.39 68.6341 22.73C68.9141 23.07 69.2441 23.24 69.6241 23.24ZM84.292 22.46C83.952 22.74 83.612 22.94 83.272 23.06C82.952 23.2 82.652 23.27 82.372 23.27C81.872 23.27 81.452 23.1 81.112 22.76C80.792 22.4 80.632 21.93 80.632 21.35C80.632 21.01 80.712 20.6 80.872 20.12C81.132 19.4 81.522 18.71 82.042 18.05C82.562 17.39 83.062 16.72 83.542 16.04C83.842 15.64 83.992 15.25 83.992 14.87C83.992 14.67 83.932 14.5 83.812 14.36C83.712 14.22 83.522 14.14 83.242 14.12C83.082 14.08 82.902 14.06 82.702 14.06C82.502 14.06 82.302 14.06 82.102 14.06H81.262C81.142 14.06 81.032 14.06 80.932 14.06C80.832 14.06 80.742 14.05 80.662 14.03C80.582 14.53 80.412 15.09 80.152 15.71C79.912 16.33 79.632 16.95 79.312 17.57C78.992 18.19 78.682 18.75 78.382 19.25C78.302 19.37 78.232 19.43 78.172 19.43C78.112 19.43 78.082 19.37 78.082 19.25C78.082 19.11 78.112 19 78.172 18.92C78.592 18.1 78.992 17.3 79.372 16.52C79.772 15.72 80.042 14.89 80.182 14.03C79.722 13.77 79.412 13.32 79.252 12.68C79.232 12.58 79.212 12.49 79.192 12.41C79.192 12.31 79.192 12.22 79.192 12.14C79.192 11.78 79.262 11.48 79.402 11.24C79.562 10.98 79.742 10.85 79.942 10.85C80.222 10.85 80.452 11.12 80.632 11.66C80.672 11.8 80.702 11.96 80.722 12.14C80.742 12.3 80.752 12.46 80.752 12.62C80.752 12.8 80.742 12.97 80.722 13.13C80.722 13.27 80.712 13.39 80.692 13.49C80.832 13.53 81.012 13.56 81.232 13.58C81.472 13.6 81.732 13.61 82.012 13.61C82.432 13.61 82.872 13.6 83.332 13.58C83.792 13.54 84.182 13.52 84.502 13.52C84.882 13.52 85.142 13.6 85.282 13.76C85.422 13.92 85.492 14.12 85.492 14.36C85.492 14.66 85.412 14.99 85.252 15.35C85.112 15.69 84.972 15.98 84.832 16.22C84.572 16.7 84.322 17.13 84.082 17.51C83.862 17.87 83.612 18.26 83.332 18.68C82.912 19.32 82.602 19.91 82.402 20.45C82.222 20.97 82.132 21.41 82.132 21.77C82.132 22.39 82.362 22.7 82.822 22.7C83.202 22.7 83.692 22.43 84.292 21.89C84.672 21.55 85.022 21.15 85.342 20.69C85.682 20.21 85.982 19.73 86.242 19.25C86.522 18.75 86.752 18.34 86.932 18.02C86.972 17.96 87.012 17.93 87.052 17.93C87.132 17.93 87.172 18.01 87.172 18.17C87.172 18.29 87.142 18.4 87.082 18.5C86.742 19.12 86.352 19.8 85.912 20.54C85.472 21.28 84.932 21.92 84.292 22.46ZM87.573 23.24C87.153 23.24 86.763 23.16 86.403 23C86.063 22.82 85.783 22.52 85.563 22.1C85.403 21.74 85.323 21.35 85.323 20.93C85.323 20.49 85.403 20.08 85.563 19.7C85.723 19.36 85.903 19.06 86.103 18.8C86.303 18.54 86.523 18.39 86.763 18.35C86.943 17.95 87.193 17.49 87.513 16.97C87.833 16.43 88.193 15.89 88.593 15.35C89.013 14.81 89.433 14.33 89.853 13.91C90.393 13.37 90.973 12.94 91.593 12.62C92.213 12.3 92.833 12.14 93.453 12.14C93.933 12.14 94.373 12.24 94.773 12.44C95.113 12.6 95.283 12.83 95.283 13.13C95.283 13.27 95.233 13.39 95.133 13.49C95.053 13.59 94.963 13.64 94.863 13.64C94.743 13.64 94.623 13.57 94.503 13.43C94.283 13.15 93.913 12.94 93.393 12.8C93.313 12.78 93.233 12.77 93.153 12.77C93.073 12.75 92.993 12.74 92.913 12.74C92.373 12.74 91.973 12.92 91.713 13.28C91.453 13.64 91.323 14.08 91.323 14.6C91.323 15.1 91.433 15.68 91.653 16.34C91.873 16.98 91.983 17.7 91.983 18.5C91.983 19.14 91.853 19.79 91.593 20.45C91.453 20.77 91.283 21.08 91.083 21.38C90.903 21.68 90.673 21.95 90.393 22.19L89.973 22.49C90.033 22.51 90.093 22.53 90.153 22.55C90.213 22.55 90.273 22.55 90.333 22.55C90.673 22.55 91.053 22.45 91.473 22.25C91.893 22.03 92.263 21.76 92.583 21.44C93.063 20.98 93.473 20.49 93.813 19.97C94.173 19.45 94.503 18.91 94.803 18.35C94.823 18.27 94.873 18.23 94.953 18.23C95.053 18.23 95.103 18.31 95.103 18.47C95.103 18.55 95.073 18.64 95.013 18.74C94.713 19.3 94.343 19.89 93.903 20.51C93.483 21.11 93.043 21.62 92.583 22.04C92.223 22.36 91.833 22.6 91.413 22.76C91.013 22.9 90.673 22.97 90.393 22.97C90.193 22.97 90.033 22.95 89.913 22.91C89.793 22.87 89.683 22.81 89.583 22.73C89.303 22.87 88.983 22.99 88.623 23.09C88.283 23.19 87.933 23.24 87.573 23.24ZM88.713 22.46C89.113 22.18 89.423 21.82 89.643 21.38C89.883 20.94 90.063 20.47 90.183 19.97C90.343 19.37 90.433 18.79 90.453 18.23C90.493 17.65 90.513 17.14 90.513 16.7V15.77C90.513 15.35 90.563 14.92 90.663 14.48C90.783 14.02 90.943 13.68 91.143 13.46C90.883 13.52 90.563 13.75 90.183 14.15C89.803 14.53 89.423 14.98 89.043 15.5C88.663 16.02 88.313 16.54 87.993 17.06C87.693 17.58 87.463 18.01 87.303 18.35C87.683 18.33 87.943 18.44 88.083 18.68C88.223 18.9 88.263 19.06 88.203 19.16C88.043 19.12 87.933 19.1 87.873 19.1C87.573 19.1 87.293 19.21 87.033 19.43C86.773 19.63 86.553 19.93 86.373 20.33C86.193 20.71 86.103 21.08 86.103 21.44C86.103 21.92 86.243 22.27 86.523 22.49C86.803 22.71 87.133 22.82 87.513 22.82C87.953 22.82 88.353 22.7 88.713 22.46ZM103.069 25.13C102.989 25.15 102.899 25.16 102.799 25.16C102.699 25.16 102.599 25.16 102.499 25.16C101.819 25.16 101.169 25.04 100.549 24.8C99.9289 24.56 99.5189 24.1 99.3189 23.42C99.2589 23.24 99.2289 23.04 99.2289 22.82C99.2289 22.28 99.3989 21.79 99.7389 21.35C99.8189 21.27 99.8989 21.22 99.9789 21.2C100.039 21.16 100.069 21.2 100.069 21.32C100.129 22.3 100.469 23 101.089 23.42C101.729 23.86 102.479 24.08 103.339 24.08C104.159 24.08 104.999 23.91 105.859 23.57C106.739 23.23 107.519 22.77 108.199 22.19C109.079 21.41 109.889 20.51 110.629 19.49C111.389 18.47 112.109 17.44 112.789 16.4C113.029 16 113.279 15.6 113.539 15.2C113.799 14.8 114.059 14.41 114.319 14.03H106.849C106.809 14.03 106.789 14.01 106.789 13.97C106.789 13.87 106.859 13.75 106.999 13.61C107.159 13.45 107.289 13.37 107.389 13.37H114.739C115.619 12.07 116.529 10.8 117.469 9.56C118.409 8.3 119.359 7.15 120.319 6.11C121.499 4.87 122.729 3.88 124.009 3.14C125.309 2.38 126.479 1.97 127.519 1.91C128.079 1.87 128.579 1.9 129.019 2C129.479 2.08 129.849 2.24 130.129 2.48C130.389 2.68 130.579 2.93 130.699 3.23C130.819 3.53 130.879 3.84 130.879 4.16C130.879 4.24 130.869 4.32 130.849 4.4C130.849 4.48 130.839 4.57 130.819 4.67C130.759 4.99 130.639 5.25 130.459 5.45C130.379 5.53 130.299 5.57 130.219 5.57C130.079 5.57 130.069 5.48 130.189 5.3C130.369 5.06 130.459 4.77 130.459 4.43C130.459 4.25 130.429 4.09 130.369 3.95C130.229 3.57 129.959 3.29 129.559 3.11C129.179 2.91 128.729 2.81 128.209 2.81C127.089 2.81 125.909 3.21 124.669 4.01C123.769 4.59 122.849 5.37 121.909 6.35C120.989 7.31 120.059 8.39 119.119 9.59C118.199 10.79 117.279 12.05 116.359 13.37H120.769C120.949 13.01 121.129 12.65 121.309 12.29C121.509 11.93 121.709 11.57 121.909 11.21C122.649 9.87 123.409 8.59 124.189 7.37C124.989 6.13 125.699 5.01 126.319 4.01C126.379 3.91 126.439 3.86 126.499 3.86C126.579 3.86 126.629 3.9 126.649 3.98C126.669 4.06 126.649 4.13 126.589 4.19C125.669 5.59 124.859 7.07 124.159 8.63C123.479 10.19 122.859 11.77 122.299 13.37H123.769C123.809 13.37 123.829 13.39 123.829 13.43C123.829 13.51 123.749 13.63 123.589 13.79C123.449 13.95 123.319 14.03 123.199 14.03H122.059C121.879 14.55 121.659 15.25 121.399 16.13C121.159 16.99 120.939 17.89 120.739 18.83C120.559 19.77 120.469 20.63 120.469 21.41C120.469 22.13 120.579 22.69 120.799 23.09C121.039 23.49 121.409 23.69 121.909 23.69C121.969 23.69 122.029 23.69 122.089 23.69C122.149 23.69 122.209 23.68 122.269 23.66C122.609 23.6 122.949 23.41 123.289 23.09C123.649 22.77 123.999 22.39 124.339 21.95C124.819 21.33 125.259 20.67 125.659 19.97C126.059 19.27 126.359 18.73 126.559 18.35C126.659 18.19 126.739 18.11 126.799 18.11C126.879 18.11 126.919 18.18 126.919 18.32C126.919 18.4 126.889 18.5 126.829 18.62C126.549 19.12 126.189 19.75 125.749 20.51C125.329 21.25 124.859 21.94 124.339 22.58C123.959 23.02 123.559 23.4 123.139 23.72C122.719 24.04 122.279 24.24 121.819 24.32C121.699 24.34 121.579 24.35 121.459 24.35C121.359 24.37 121.249 24.38 121.129 24.38C120.549 24.38 120.039 24.21 119.599 23.87C119.159 23.55 118.859 23 118.699 22.22C118.659 22 118.629 21.77 118.609 21.53C118.589 21.29 118.579 21.06 118.579 20.84C118.579 19.68 118.779 18.51 119.179 17.33C119.599 16.15 120.029 15.05 120.469 14.03H115.849C115.529 14.47 115.219 14.93 114.919 15.41C114.619 15.87 114.309 16.33 113.989 16.79C113.409 17.63 112.709 18.52 111.889 19.46C111.089 20.38 110.209 21.26 109.249 22.1C108.289 22.92 107.279 23.61 106.219 24.17C105.179 24.73 104.129 25.05 103.069 25.13ZM133.838 23.21C133.158 23.21 132.668 22.98 132.368 22.52C132.068 22.04 131.918 21.45 131.918 20.75C131.918 20.05 132.038 19.36 132.278 18.68L132.578 17.81L131.468 19.52C131.188 19.96 130.818 20.46 130.358 21.02C129.918 21.56 129.448 22.03 128.948 22.43C128.308 22.95 127.728 23.21 127.208 23.21C126.708 23.21 126.318 23 126.038 22.58C125.778 22.16 125.648 21.63 125.648 20.99C125.648 20.55 125.708 20.11 125.828 19.67C126.128 18.55 126.588 17.53 127.208 16.61C127.828 15.67 128.608 14.86 129.548 14.18C129.948 13.88 130.458 13.64 131.078 13.46C131.698 13.26 132.318 13.16 132.938 13.16C133.178 13.16 133.418 13.18 133.658 13.22C133.898 13.26 134.118 13.31 134.318 13.37C134.478 13.01 134.658 12.61 134.858 12.17C135.078 11.73 135.288 11.3 135.488 10.88C135.708 10.44 135.888 10.08 136.028 9.8C136.428 8.98 136.928 8 137.528 6.86C138.128 5.72 138.828 4.66 139.628 3.68C140.248 2.9 140.958 2.22 141.758 1.64C142.578 1.04 143.368 0.739999 144.128 0.739999C144.588 0.739999 144.928 0.879999 145.148 1.16C145.388 1.44 145.508 1.78 145.508 2.18C145.508 2.54 145.438 2.87 145.298 3.17C144.978 3.89 144.468 4.65 143.768 5.45C143.088 6.25 142.348 7.03 141.548 7.79C140.768 8.53 140.068 9.2 139.448 9.8C138.928 10.3 138.468 10.74 138.068 11.12C137.668 11.48 137.298 11.84 136.958 12.2C136.618 12.56 136.248 12.96 135.848 13.4C135.408 14.4 134.998 15.4 134.618 16.4C134.258 17.4 133.958 18.33 133.718 19.19C133.498 20.05 133.388 20.77 133.388 21.35C133.388 22.17 133.638 22.61 134.138 22.67C134.478 22.67 134.798 22.56 135.098 22.34C135.398 22.12 135.658 21.88 135.878 21.62C136.338 21.12 136.758 20.57 137.138 19.97C137.518 19.37 137.898 18.73 138.278 18.05C138.338 17.97 138.398 17.93 138.458 17.93C138.538 17.93 138.578 17.99 138.578 18.11C138.578 18.21 138.558 18.29 138.518 18.35C138.158 19.01 137.768 19.67 137.348 20.33C136.948 20.99 136.458 21.61 135.878 22.19C135.618 22.45 135.318 22.69 134.978 22.91C134.638 23.11 134.258 23.21 133.838 23.21ZM136.328 12.35C136.788 11.83 137.218 11.37 137.618 10.97C138.018 10.55 138.508 10.04 139.088 9.44C139.648 8.88 140.288 8.22 141.008 7.46C141.748 6.7 142.438 5.93 143.078 5.15C143.738 4.37 144.218 3.68 144.518 3.08C144.758 2.6 144.878 2.21 144.878 1.91C144.878 1.41 144.628 1.16 144.128 1.16C143.508 1.16 142.858 1.45 142.178 2.03C141.518 2.59 140.868 3.36 140.228 4.34C139.688 5.18 139.178 6.1 138.698 7.1C138.218 8.08 137.778 9.03 137.378 9.95C136.978 10.87 136.628 11.67 136.328 12.35ZM127.838 22.28C128.198 22.28 128.628 22.04 129.128 21.56C129.648 21.06 130.178 20.45 130.718 19.73C131.278 18.99 131.788 18.27 132.248 17.57C132.388 17.37 132.568 17.04 132.788 16.58C133.028 16.12 133.278 15.63 133.538 15.11C133.798 14.57 134.018 14.1 134.198 13.7C134.078 13.66 133.958 13.64 133.838 13.64C133.738 13.64 133.628 13.64 133.508 13.64C132.888 13.64 132.268 13.81 131.648 14.15C131.048 14.47 130.508 14.9 130.028 15.44C129.348 16.18 128.778 16.98 128.318 17.84C127.858 18.68 127.538 19.42 127.358 20.06C127.258 20.42 127.208 20.79 127.208 21.17C127.208 21.47 127.248 21.73 127.328 21.95C127.428 22.17 127.598 22.28 127.838 22.28ZM149.281 23.18C148.681 23.18 148.221 23 147.901 22.64C147.581 22.26 147.421 21.79 147.421 21.23C147.421 20.61 147.581 19.99 147.901 19.37C148.221 18.73 148.581 18.11 148.981 17.51C149.401 16.91 149.771 16.34 150.091 15.8C150.411 15.26 150.571 14.78 150.571 14.36C150.571 14.2 150.531 14.06 150.451 13.94C150.371 13.8 150.221 13.73 150.001 13.73C149.361 13.73 148.691 14.03 147.991 14.63C147.311 15.21 146.651 15.96 146.011 16.88C145.371 17.8 144.791 18.76 144.271 19.76C143.771 20.76 143.381 21.68 143.101 22.52C142.781 22.44 142.561 22.32 142.441 22.16C142.341 21.98 142.291 21.79 142.291 21.59C142.291 21.27 142.331 20.96 142.411 20.66C142.511 20.36 142.661 19.99 142.861 19.55C143.061 19.11 143.321 18.55 143.641 17.87C143.961 17.17 144.341 16.27 144.781 15.17C144.841 15.01 144.881 14.87 144.901 14.75C144.921 14.63 144.931 14.52 144.931 14.42C144.931 13.96 144.741 13.73 144.361 13.73C143.881 13.73 143.391 13.93 142.891 14.33C142.391 14.71 141.901 15.22 141.421 15.86C140.961 16.5 140.521 17.19 140.101 17.93C139.681 18.67 139.301 19.4 138.961 20.12C138.621 20.82 138.341 21.43 138.121 21.95C137.921 22.41 137.681 22.71 137.401 22.85C137.121 22.97 136.851 23.03 136.591 23.03C136.511 23.03 136.411 23.02 136.291 23C136.191 23 136.091 23 135.991 23C136.391 22.2 136.811 21.33 137.251 20.39C137.711 19.43 138.131 18.47 138.511 17.51C138.891 16.55 139.201 15.63 139.441 14.75C139.681 13.87 139.801 13.11 139.801 12.47C139.801 12.39 139.791 12.33 139.771 12.29C139.771 12.25 139.771 12.21 139.771 12.17C139.771 12.11 139.791 12.08 139.831 12.08C140.031 12.08 140.191 12.21 140.311 12.47C140.431 12.71 140.511 12.99 140.551 13.31C140.611 13.61 140.641 13.85 140.641 14.03C140.641 14.53 140.581 15.05 140.461 15.59C140.341 16.11 140.201 16.55 140.041 16.91C140.801 15.89 141.581 15.02 142.381 14.3C143.201 13.58 144.011 13.22 144.811 13.22C145.351 13.22 145.741 13.33 145.981 13.55C146.221 13.77 146.341 14.08 146.341 14.48C146.341 14.76 146.291 15.04 146.191 15.32C146.111 15.6 145.971 15.98 145.771 16.46C146.531 15.42 147.271 14.62 147.991 14.06C148.731 13.5 149.461 13.22 150.181 13.22C150.761 13.22 151.191 13.35 151.471 13.61C151.771 13.87 151.921 14.22 151.921 14.66C151.921 15.14 151.761 15.71 151.441 16.37C151.141 17.01 150.791 17.68 150.391 18.38C149.991 19.06 149.631 19.71 149.311 20.33C149.011 20.93 148.861 21.43 148.861 21.83C148.861 22.05 148.911 22.25 149.011 22.43C149.111 22.61 149.291 22.7 149.551 22.7C149.891 22.7 150.211 22.59 150.511 22.37C150.831 22.13 151.101 21.88 151.321 21.62C151.781 21.12 152.201 20.57 152.581 19.97C152.981 19.35 153.371 18.7 153.751 18.02C153.811 17.94 153.851 17.9 153.871 17.9C153.951 17.9 153.991 17.99 153.991 18.17C153.991 18.29 153.971 18.38 153.931 18.44C153.571 19.1 153.191 19.75 152.791 20.39C152.391 21.01 151.901 21.61 151.321 22.19C151.061 22.45 150.761 22.68 150.421 22.88C150.081 23.08 149.701 23.18 149.281 23.18ZM154.371 23.18C153.811 23.18 153.401 23 153.141 22.64C152.881 22.26 152.751 21.8 152.751 21.26C152.751 21.1 152.761 20.94 152.781 20.78C152.821 20.6 152.861 20.42 152.901 20.24C153.121 19.44 153.461 18.55 153.921 17.57C154.401 16.57 154.861 15.68 155.301 14.9C155.561 14.46 155.801 14.15 156.021 13.97C156.241 13.77 156.481 13.63 156.741 13.55C157.001 13.45 157.311 13.34 157.671 13.22C157.771 13.18 157.871 13.15 157.971 13.13C158.071 13.11 158.181 13.09 158.301 13.07C157.901 13.47 157.491 13.95 157.071 14.51C156.671 15.07 156.231 15.84 155.751 16.82C155.491 17.34 155.231 17.92 154.971 18.56C154.731 19.2 154.521 19.8 154.341 20.36C154.161 20.92 154.061 21.36 154.041 21.68C154.021 22.06 154.071 22.33 154.191 22.49C154.311 22.65 154.471 22.73 154.671 22.73C155.011 22.73 155.331 22.61 155.631 22.37C155.951 22.13 156.231 21.88 156.471 21.62C156.911 21.12 157.321 20.57 157.701 19.97C158.101 19.37 158.491 18.73 158.871 18.05C158.931 17.97 158.981 17.93 159.021 17.93C159.101 17.93 159.141 17.99 159.141 18.11C159.141 18.21 159.121 18.29 159.081 18.35C158.721 19.01 158.341 19.67 157.941 20.33C157.541 20.99 157.051 21.61 156.471 22.19C156.211 22.45 155.901 22.68 155.541 22.88C155.201 23.08 154.811 23.18 154.371 23.18ZM158.031 11.39C157.811 11.39 157.621 11.31 157.461 11.15C157.321 10.99 157.251 10.8 157.251 10.58C157.251 10.3 157.361 10.05 157.581 9.83C157.821 9.61 158.081 9.48 158.361 9.44C158.581 9.44 158.761 9.52 158.901 9.68C159.061 9.82 159.141 10.01 159.141 10.25C159.141 10.51 159.031 10.77 158.811 11.03C158.591 11.27 158.331 11.39 158.031 11.39ZM164.207 23.18C163.627 23.18 163.167 23 162.827 22.64C162.507 22.28 162.347 21.83 162.347 21.29C162.347 21.03 162.397 20.73 162.497 20.39C162.777 19.51 163.217 18.64 163.817 17.78C164.437 16.9 164.947 16.03 165.347 15.17C165.487 14.89 165.557 14.64 165.557 14.42C165.557 14.2 165.487 14.04 165.347 13.94C165.227 13.82 165.077 13.76 164.897 13.76C164.637 13.76 164.307 13.87 163.907 14.09C163.527 14.29 163.087 14.68 162.587 15.26C162.287 15.62 161.947 16.06 161.567 16.58C161.187 17.1 160.877 17.57 160.637 17.99C160.237 18.67 159.877 19.36 159.557 20.06C159.237 20.74 158.957 21.37 158.717 21.95C158.517 22.41 158.277 22.71 157.997 22.85C157.717 22.97 157.447 23.02 157.187 23C156.927 22.98 156.727 22.98 156.587 23C157.147 21.9 157.697 20.74 158.237 19.52C158.777 18.3 159.237 17.08 159.617 15.86C159.797 15.3 159.947 14.76 160.067 14.24C160.187 13.7 160.237 13.35 160.217 13.19V13.13C160.217 12.97 160.297 12.93 160.457 13.01C160.717 13.15 160.897 13.36 160.997 13.64C161.097 13.9 161.147 14.2 161.147 14.54C161.147 14.92 161.097 15.33 160.997 15.77C160.897 16.19 160.777 16.57 160.637 16.91C160.897 16.55 161.177 16.19 161.477 15.83C161.777 15.45 162.107 15.09 162.467 14.75C162.887 14.33 163.337 13.97 163.817 13.67C164.297 13.35 164.817 13.19 165.377 13.19C165.917 13.19 166.307 13.31 166.547 13.55C166.807 13.79 166.937 14.11 166.937 14.51C166.937 14.93 166.817 15.41 166.577 15.95C166.317 16.57 165.997 17.19 165.617 17.81C165.257 18.43 164.927 19.03 164.627 19.61C164.567 19.73 164.467 19.92 164.327 20.18C164.207 20.42 164.097 20.69 163.997 20.99C163.957 21.13 163.917 21.28 163.877 21.44C163.837 21.58 163.817 21.73 163.817 21.89C163.817 22.09 163.857 22.28 163.937 22.46C164.037 22.62 164.217 22.7 164.477 22.7C164.817 22.7 165.137 22.59 165.437 22.37C165.757 22.13 166.027 21.88 166.247 21.62C166.707 21.12 167.127 20.57 167.507 19.97C167.907 19.35 168.297 18.7 168.677 18.02C168.737 17.94 168.777 17.9 168.797 17.9C168.877 17.9 168.917 17.99 168.917 18.17C168.917 18.29 168.897 18.38 168.857 18.44C168.497 19.1 168.117 19.75 167.717 20.39C167.317 21.01 166.827 21.61 166.247 22.19C165.987 22.45 165.687 22.68 165.347 22.88C165.007 23.08 164.627 23.18 164.207 23.18Z" fill="#3100F5"/>
</svg>
